<svg xmlns="http://www.w3.org/2000/svg" viewBox="0 0 1024 1024" width="1024" height="1024">
  <defs>
    <linearGradient id="grad" x1="0%" y1="0%" x2="100%" y2="100%">
      <stop offset="0%" stop-color="#409EFF"/>
      <stop offset="100%" stop-color="#66b1ff"/>
    </linearGradient>
  </defs>
  <!-- ???? -->
  <path fill="url(#grad)" d="M160 360h704c48 0 80 32 80 80v384c0 48-32 80-80 80H160c-48 0-80-32-80-80V440c0-48 32-80 80-80z"/>
  <!-- ?? -->
  <path fill="none" stroke="#fff" stroke-width="16" stroke-opacity="0.6" d="M240 360v-96l272-64 272 64v96"/>
  <!-- ?? -->
  <path fill="#fff" d="M352 464l64-64 48 48-64 64-32-16 32-32-16-16z"/>
  <!-- ?? -->
  <circle fill="#fff" cx="704" cy="416" r="80"/>
  <circle fill="url(#grad)" cx="704" cy="416" r="40"/>
</svg>
